<svg width="43" height="43" viewBox="0 0 43 43" fill="none" xmlns="http://www.w3.org/2000/svg">
<path d="M37 22C37 30.8364 29.8364 38 21 38C12.1636 38 5 30.8364 5 22C5 13.1636 12.1636 6 21 6C29.8364 6 37 13.1636 37 22Z" fill="#D8282F"/>
<path d="M19.8975 26.9095H18.0617V19.4676L16.4458 20.3215L15.6766 18.8171L18.0581 17.4631L18.5863 17.173C18.7098 17.12 18.8427 17.0927 18.9771 17.0926C19.4887 17.0926 19.8975 17.5615 19.8975 18.1441V26.908V26.9095ZM34.2595 18.1383V26.9088H32.4266V19.4647L30.8107 20.3179L30.0444 18.8171L32.4251 17.4639L32.9505 17.173C33.067 17.1187 33.2059 17.089 33.3449 17.089C33.8543 17.089 34.2639 17.5615 34.2639 18.1383C34.2639 18.1651 34.2595 18.1144 34.2595 18.1383ZM26.9552 24.062C26.5876 24.6677 26.0962 24.9709 25.4645 24.9709C24.8392 24.9709 24.345 24.6677 23.9651 24.0627C23.5881 23.4483 23.4021 22.7059 23.4021 21.823C23.4021 20.946 23.5881 20.2014 23.9651 19.5957C24.345 18.9799 24.84 18.6788 25.4652 18.6788C26.0962 18.6788 26.5876 18.9799 26.9544 19.5957C27.3365 20.2014 27.516 20.946 27.516 21.823C27.516 22.7059 27.3365 23.4483 26.9544 24.0627L26.9552 24.062ZM28.2563 18.4328C27.5594 17.4754 26.6223 16.9855 25.437 16.9855C23.8385 16.9855 22.5931 18.0276 21.9859 19.5045C21.6907 20.2368 21.5532 21.0328 21.5532 21.9128C21.5532 23.6625 22.143 25.2075 23.3399 26.1403C23.9448 26.6128 24.6402 26.8429 25.437 26.8429C26.6223 26.8429 27.5869 26.3523 28.2794 25.3935C28.9893 24.4296 29.3113 23.2696 29.3113 21.9128C29.3113 20.5596 28.964 19.3945 28.2563 18.4328ZM10.5974 23.2066L11.855 20.1782L13.1113 23.2066H10.5974ZM12.6235 17.6071C12.5605 17.4542 12.4541 17.3231 12.3174 17.23C12.1807 17.1369 12.0197 17.0859 11.8543 17.0832C11.5359 17.0832 11.2551 17.2735 11.1148 17.5514L7.08411 26.9088H9.0524L9.92655 24.8117H13.785L14.6562 26.9095H16.6274L12.6235 17.6071Z" fill="white"/>
</svg>
