<svg width="17" height="22" viewBox="0 0 17 22" fill="none" xmlns="http://www.w3.org/2000/svg">
<path d="M1.61035 11.0068C1.61035 10.6167 1.75146 10.3096 2.05859 10.0107L10.376 1.95068C10.6167 1.70996 10.9072 1.59375 11.2559 1.59375C11.9614 1.59375 12.5176 2.1499 12.5176 2.84717C12.5176 3.1875 12.3765 3.51123 12.1274 3.75195L4.60693 10.9985L12.1274 18.2534C12.3765 18.5024 12.5176 18.8096 12.5176 19.1665C12.5176 19.8638 11.9614 20.4199 11.2559 20.4199C10.9155 20.4199 10.6167 20.2954 10.376 20.0547L2.05859 12.0029C1.75146 11.7041 1.61035 11.3887 1.61035 11.0068Z" fill="#E7363C"/>
</svg>
