<svg width="25" height="24" viewBox="0 0 25 24" fill="none" xmlns="http://www.w3.org/2000/svg">
<path fill-rule="evenodd" clip-rule="evenodd" d="M9.74999 6C9.74999 4.48122 10.9812 3.25 12.5 3.25C14.0188 3.25 15.25 4.48122 15.25 6H9.74999ZM8.24999 6H7.37889C6.32277 6 5.44867 6.82117 5.38279 7.87524L4.63279 19.8752C4.56083 21.0266 5.47525 22 6.62889 22H18.3711C19.5247 22 20.4392 21.0266 20.3672 19.8752L19.6172 7.87524C19.5513 6.82117 18.6772 6 17.6211 6H16.75C16.75 3.65279 14.8472 1.75 12.5 1.75C10.1528 1.75 8.24999 3.65279 8.24999 6ZM9.00003 8.75C9.41424 8.75 9.75003 9.08579 9.75003 9.5C9.75003 11.0188 10.9812 12.25 12.5 12.25C14.0188 12.25 15.25 11.0188 15.25 9.5C15.25 9.08579 15.5858 8.75 16 8.75C16.4142 8.75 16.75 9.08579 16.75 9.5C16.75 11.8472 14.8472 13.75 12.5 13.75C10.1528 13.75 8.25003 11.8472 8.25003 9.5C8.25003 9.08579 8.58582 8.75 9.00003 8.75Z" fill="#A9A9AC"/>
</svg>
