<svg width="25" height="24" viewBox="0 0 25 24" fill="none" xmlns="http://www.w3.org/2000/svg">
<g clip-path="url(#clip0_5882_44019)">
<path fill-rule="evenodd" clip-rule="evenodd" d="M22.5 10H2.5V17C2.5 18.1046 3.39543 19 4.5 19H20.5C21.6046 19 22.5 18.1046 22.5 17V10ZM4.5 14.5C4.5 14.2239 4.72386 14 5 14H10C10.2761 14 10.5 14.2239 10.5 14.5C10.5 14.7761 10.2761 15 10 15H5C4.72386 15 4.5 14.7761 4.5 14.5ZM5 16C4.72386 16 4.5 16.2239 4.5 16.5C4.5 16.7761 4.72386 17 5 17H7C7.27614 17 7.5 16.7761 7.5 16.5C7.5 16.2239 7.27614 16 7 16H5ZM20.5 15C20.5 16.1046 19.6046 17 18.5 17C17.3954 17 16.5 16.1046 16.5 15C16.5 13.8954 17.3954 13 18.5 13C19.6046 13 20.5 13.8954 20.5 15ZM14.5 15C14.5 14.4477 14.9477 14 15.5 14C15.5871 14 15.6709 14.011 15.7504 14.0315C16.0178 14.1003 16.2904 13.9393 16.3592 13.6719C16.428 13.4045 16.2671 13.1319 15.9996 13.063C15.8394 13.0218 15.6719 13 15.5 13C14.3954 13 13.5 13.8954 13.5 15C13.5 16.1046 14.3954 17 15.5 17C15.6719 17 15.8394 16.9782 15.9996 16.937C16.2671 16.8681 16.428 16.5955 16.3592 16.3281C16.2904 16.0607 16.0178 15.8997 15.7504 15.9685C15.6709 15.989 15.5871 16 15.5 16C14.9477 16 14.5 15.5523 14.5 15Z" fill="#A9A9AC"/>
<path d="M4.5 5C3.39543 5 2.5 5.89543 2.5 7V8H22.5V7C22.5 5.89543 21.6046 5 20.5 5H4.5Z" fill="#D1D1D5"/>
</g>
<defs>
<clipPath id="clip0_5882_44019">
<rect width="24" height="24" fill="white" transform="translate(0.5)"/>
</clipPath>
</defs>
</svg>
