<svg width="24" height="24" viewBox="0 0 24 24" fill="none" xmlns="http://www.w3.org/2000/svg">
<path fill-rule="evenodd" clip-rule="evenodd" d="M15.4697 1.38959C15.7626 1.0967 16.2374 1.0967 16.5303 1.38959L18.6517 3.51091C19.3351 4.19433 19.3351 5.30237 18.6517 5.98579L16.5303 8.10711C16.2374 8.4 15.7626 8.4 15.4697 8.10711C15.1768 7.81421 15.1768 7.33934 15.4697 7.04645L17.0164 5.49975L17 5.49992H9.75C6.85051 5.49992 4.5 7.85043 4.5 10.7499V15.2499C4.5 18.1494 6.85051 20.4999 9.75 20.4999H14.25C17.1495 20.4999 19.5 18.1494 19.5 15.2499V12.9999C19.5 12.5857 19.8358 12.2499 20.25 12.2499C20.6642 12.2499 21 12.5857 21 12.9999V15.2499C21 18.9778 17.9779 21.9999 14.25 21.9999H9.75C6.02208 21.9999 3 18.9778 3 15.2499V10.7499C3 7.022 6.02208 3.99992 9.75 3.99992H17L17.0196 4.00017L15.4697 2.45025C15.1768 2.15736 15.1768 1.68249 15.4697 1.38959ZM10.4504 8.74992L10.4547 8.74994H13.0513C14.4599 8.74994 15.6019 9.89188 15.6019 11.3005C15.6019 12.7092 14.4599 13.8511 13.0513 13.8511H11.2004V14.3518H12.6511C13.0653 14.3518 13.4011 14.6876 13.4011 15.1018C13.4011 15.516 13.0653 15.8518 12.6511 15.8518H11.2004V16.2995C11.2004 16.7137 10.8646 17.0495 10.4504 17.0495C10.0362 17.0495 9.7004 16.7137 9.7004 16.2995V15.8518H9.25C8.83579 15.8518 8.5 15.516 8.5 15.1018C8.5 14.6876 8.83579 14.3518 9.25 14.3518H9.7004V13.8511V13.8511H9.25C8.83579 13.8511 8.5 13.5153 8.5 13.1011C8.5 12.6869 8.83579 12.3511 9.25 12.3511H9.7004V9.49994V9.49992V8.74994H10.4461L10.4504 8.74992ZM13.0513 12.3511H12.4554L12.4511 12.3511H11.2004V10.2499H13.0513C13.6315 10.2499 14.1019 10.7203 14.1019 11.3005C14.1019 11.8808 13.6315 12.3511 13.0513 12.3511Z" fill="#585758"/>
</svg>
