<svg width="25" height="24" viewBox="0 0 25 24" fill="none" xmlns="http://www.w3.org/2000/svg">
<path fill-rule="evenodd" clip-rule="evenodd" d="M14.5 16.75C15.4665 16.75 16.25 15.9665 16.25 15L16.25 5C16.25 4.0335 15.4665 3.25 14.5 3.25H5.5C4.5335 3.25 3.75 4.0335 3.75 5V15C3.75 15.9665 4.5335 16.75 5.5 16.75L14.5 16.75ZM14.75 15C14.75 15.1381 14.6381 15.25 14.5 15.25L5.5 15.25C5.36193 15.25 5.25 15.1381 5.25 15L5.25 5C5.25 4.86193 5.36193 4.75 5.5 4.75L14.5 4.75C14.6381 4.75 14.75 4.86193 14.75 5L14.75 15ZM17.5 6.25C17.0858 6.25 16.75 6.58579 16.75 7C16.75 7.41421 17.0858 7.75 17.5 7.75H19.5C19.6381 7.75 19.75 7.86193 19.75 8V19C19.75 19.1381 19.6381 19.25 19.5 19.25H10.5C10.3619 19.25 10.25 19.1381 10.25 19V18C10.25 17.5858 9.91421 17.25 9.5 17.25C9.08579 17.25 8.75 17.5858 8.75 18V19C8.75 19.9665 9.5335 20.75 10.5 20.75H19.5C20.4665 20.75 21.25 19.9665 21.25 19V8C21.25 7.0335 20.4665 6.25 19.5 6.25H17.5Z" fill="#18181A"/>
</svg>
