<svg width="16" height="16" viewBox="0 0 16 16" fill="none" xmlns="http://www.w3.org/2000/svg">
<path fill-rule="evenodd" clip-rule="evenodd" d="M2.5 8C2.5 4.96233 4.96233 2.5 8 2.5C11.0377 2.5 13.5 4.96233 13.5 8C13.5 11.0377 11.0377 13.5 8 13.5C4.96233 13.5 2.5 11.0377 2.5 8ZM8 1C4.1339 1 1 4.1339 1 8C1 11.8661 4.1339 15 8 15C11.8661 15 15 11.8661 15 8C15 4.1339 11.8661 1 8 1ZM7.03125 4.28125C7.03125 3.86704 7.36704 3.53125 7.78125 3.53125C8.19546 3.53125 8.53125 3.86704 8.53125 4.28125V7.80454C8.53125 7.87084 8.55759 7.93443 8.60447 7.98131L10.4991 9.87592C10.792 10.1688 10.792 10.6437 10.4991 10.9366C10.2062 11.2295 9.73131 11.2295 9.43842 10.9366L7.54381 9.04197C7.21562 8.71378 7.03125 8.26867 7.03125 7.80454V4.28125Z" fill="#18181A" fill-opacity="0.5"/>
</svg>
