<svg width="24" height="24" viewBox="0 0 24 24" fill="none" xmlns="http://www.w3.org/2000/svg">
<g clip-path="url(#clip0_5037_749)">
<path fill-rule="evenodd" clip-rule="evenodd" d="M3.5 12C3.5 7.30543 7.30543 3.5 12 3.5C16.6946 3.5 20.5 7.30543 20.5 12C20.5 16.6946 16.6946 20.5 12 20.5C7.30543 20.5 3.5 16.6946 3.5 12ZM12 2C6.477 2 2 6.477 2 12C2 17.523 6.477 22 12 22C17.523 22 22 17.523 22 12C22 6.477 17.523 2 12 2ZM10.25 7.24999L10.2534 7.25H13.5C15.1569 7.25 16.5 8.59315 16.5 10.25C16.5 11.9069 15.1569 13.25 13.5 13.25H11V14.25H13C13.4142 14.25 13.75 14.5858 13.75 15C13.75 15.4142 13.4142 15.75 13 15.75H11V16.4967C11 16.9109 10.6642 17.2467 10.25 17.2467C9.83579 17.2467 9.5 16.9109 9.5 16.4967V15.75H8.75C8.33579 15.75 8 15.4142 8 15C8 14.5858 8.33579 14.25 8.75 14.25H9.5V13.25V13.25H8.75C8.33579 13.25 8 12.9142 8 12.5C8 12.0858 8.33579 11.75 8.75 11.75H9.5V8V7.99999V7.25H10.2466L10.25 7.24999ZM13.5 11.75H12.7534L12.75 11.75H11V8.75H13.5C14.3284 8.75 15 9.42157 15 10.25C15 11.0784 14.3284 11.75 13.5 11.75Z" fill="#585758"/>
</g>
<defs>
<clipPath id="clip0_5037_749">
<rect width="24" height="24" fill="white"/>
</clipPath>
</defs>
</svg>
