<svg width="24" height="24" viewBox="0 0 24 24" fill="none" xmlns="http://www.w3.org/2000/svg">
<path fill-rule="evenodd" clip-rule="evenodd" d="M3.28021 11.6499C2.98725 11.357 2.51238 11.3571 2.21955 11.6501C1.92672 11.9431 1.92683 12.4179 2.21979 12.7108L7.29206 17.7808C7.58497 18.0735 8.05975 18.0735 8.3526 17.7806L17.7826 8.35064C18.0755 8.05775 18.0755 7.58288 17.7826 7.28998C17.4897 6.99709 17.0148 6.99709 16.7219 7.28998L7.82215 16.1898L3.28021 11.6499ZM11.2919 16.72C10.999 17.0129 10.999 17.4878 11.2919 17.7806C11.5848 18.0735 12.0597 18.0735 12.3526 17.7806L21.7826 8.35064C22.0755 8.05775 22.0755 7.58288 21.7826 7.28998C21.4897 6.99709 21.0148 6.99709 20.7219 7.28998L11.2919 16.72Z" />
</svg>
