<svg width="25" height="24" viewBox="0 0 25 24" fill="none" xmlns="http://www.w3.org/2000/svg">
<g clip-path="url(#clip0_5882_127939)">
<path d="M6.63157 21H18.3666C20.0973 21 21.5 19.6986 21.5 18.0929V9.76531C21.5 8.82322 21.0071 7.93957 20.1788 7.39459L14.3122 3.53509C13.2264 2.82164 11.7718 2.82164 10.6878 3.53509L4.82119 7.39459C3.9929 7.93957 3.5 8.82322 3.5 9.76531V18.0929C3.49815 19.6986 4.90087 21 6.63157 21Z" fill="#A9A9AC"/>
<path d="M8.5 14C8.5 12.8954 9.39543 12 10.5 12H14.5C15.6046 12 16.5 12.8954 16.5 14V21H8.5V14Z" fill="#D1D1D5"/>
</g>
<defs>
<clipPath id="clip0_5882_127939">
<rect width="24" height="24" fill="white" transform="translate(0.5)"/>
</clipPath>
</defs>
</svg>
