<svg width="25" height="24" viewBox="0 0 25 24" fill="none" xmlns="http://www.w3.org/2000/svg">
<path fill-rule="evenodd" clip-rule="evenodd" d="M6.5 3.5H18.5C18.7761 3.5 19 3.72386 19 4V19.1972L18.4707 18.8444C17.8829 18.4525 17.1171 18.4525 16.5293 18.8444L14.551 20.1632L13.55 19.4125C12.9278 18.9458 12.0722 18.9458 11.45 19.4125L10.449 20.1632L8.47073 18.8444C7.8829 18.4525 7.1171 18.4525 6.52927 18.8444L6 19.1972V4C6 3.72386 6.22386 3.5 6.5 3.5ZM20.5 4V20.1972V20.3059V21.1579V21.5329C20.5 21.7325 20.2775 21.8516 20.1113 21.7409L19.7993 21.5329L19.0904 21.0603L19 21L17.6387 20.0924C17.5547 20.0365 17.4453 20.0365 17.3613 20.0924L14.6472 21.9019C14.559 21.9607 14.4433 21.9575 14.3585 21.8939L12.65 20.6125C12.5611 20.5458 12.4389 20.5458 12.35 20.6125L10.6415 21.8939C10.5567 21.9575 10.441 21.9607 10.3528 21.9019L7.63867 20.0924C7.5547 20.0365 7.4453 20.0365 7.36133 20.0924L6 21L5.90957 21.0603L5.20069 21.5329L4.88867 21.7409C4.72254 21.8516 4.5 21.7325 4.5 21.5329V21.1579V20.3059V20.1972V4C4.5 2.89543 5.39543 2 6.5 2H18.5C19.6046 2 20.5 2.89543 20.5 4ZM9.25 6.5C8.83579 6.5 8.5 6.83579 8.5 7.25C8.5 7.66421 8.83579 8 9.25 8H15.75C16.1642 8 16.5 7.66421 16.5 7.25C16.5 6.83579 16.1642 6.5 15.75 6.5H9.25ZM8.5 10.25C8.5 9.83579 8.83579 9.5 9.25 9.5H15.75C16.1642 9.5 16.5 9.83579 16.5 10.25C16.5 10.6642 16.1642 11 15.75 11H9.25C8.83579 11 8.5 10.6642 8.5 10.25ZM9.25 12.5C8.83579 12.5 8.5 12.8358 8.5 13.25C8.5 13.6642 8.83579 14 9.25 14H12.75C13.1642 14 13.5 13.6642 13.5 13.25C13.5 12.8358 13.1642 12.5 12.75 12.5H9.25Z" fill="#585758"/>
</svg>
