<svg width="17" height="16" viewBox="0 0 17 16" fill="none" xmlns="http://www.w3.org/2000/svg">
<path fill-rule="evenodd" clip-rule="evenodd" d="M8.75006 1.25C10.923 1.25 12.5001 3.2567 12.5001 5.48683V6.04348C13.4046 6.23519 14.0834 7.03834 14.0834 8.00001V12C14.0834 13.1046 13.1879 14 12.0834 14H5.41669C4.31212 14 3.41669 13.1046 3.41669 12V8.00001C3.41669 7.03831 4.09546 6.23515 5.00006 6.04347V5.48683C5.00006 3.2567 6.57712 1.25 8.75006 1.25ZM6.50006 6.00001H11.0001V5.48683C11.0001 3.86552 9.89083 2.75 8.75006 2.75C7.60929 2.75 6.50006 3.86552 6.50006 5.48683V6.00001ZM4.91669 8.00001C4.91669 7.72387 5.14054 7.50001 5.41669 7.50001H12.0834C12.3595 7.50001 12.5834 7.72387 12.5834 8.00001V12C12.5834 12.2762 12.3595 12.5 12.0834 12.5H5.41669C5.14054 12.5 4.91669 12.2761 4.91669 12V8.00001ZM9.75002 9.33334C9.75002 9.70348 9.54892 10.0267 9.25002 10.1996V11.1667C9.25002 11.4428 9.02616 11.6667 8.75002 11.6667C8.47388 11.6667 8.25002 11.4428 8.25002 11.1667V10.1996C7.95112 10.0267 7.75002 9.70348 7.75002 9.33334C7.75002 8.78106 8.19774 8.33334 8.75002 8.33334C9.30231 8.33334 9.75002 8.78106 9.75002 9.33334Z" />
</svg>
