<svg width="24" height="24" viewBox="0 0 24 24" fill="none" xmlns="http://www.w3.org/2000/svg">
<g clip-path="url(#clip0_5037_734)">
<path fill-rule="evenodd" clip-rule="evenodd" d="M11.5 9C11.5 10.3807 10.3807 11.5 9 11.5C7.61929 11.5 6.5 10.3807 6.5 9C6.5 7.61929 7.61929 6.5 9 6.5C10.3807 6.5 11.5 7.61929 11.5 9ZM10 9C10 9.55228 9.55228 10 9 10C8.44772 10 8 9.55228 8 9C8 8.44772 8.44772 8 9 8C9.55228 8 10 8.44772 10 9Z" fill="#585758"/>
<path d="M16.5303 8.53032L8.53033 16.5303C8.23744 16.8232 7.76256 16.8232 7.46967 16.5303C7.17678 16.2374 7.17678 15.7626 7.46967 15.4697L15.4697 7.46966C15.7626 7.17677 16.2374 7.17677 16.5303 7.46966C16.8232 7.76256 16.8232 8.23743 16.5303 8.53032Z" fill="#585758"/>
<path fill-rule="evenodd" clip-rule="evenodd" d="M17.5 15C17.5 16.3807 16.3807 17.5 15 17.5C13.6193 17.5 12.5 16.3807 12.5 15C12.5 13.6193 13.6193 12.5 15 12.5C16.3807 12.5 17.5 13.6193 17.5 15ZM16 15C16 15.5523 15.5523 16 15 16C14.4477 16 14 15.5523 14 15C14 14.4477 14.4477 14 15 14C15.5523 14 16 14.4477 16 15Z" fill="#585758"/>
<path fill-rule="evenodd" clip-rule="evenodd" d="M12 2C6.477 2 2 6.477 2 12C2 17.523 6.477 22 12 22C17.523 22 22 17.523 22 12C22 6.477 17.523 2 12 2ZM3.5 12C3.5 7.30543 7.30543 3.5 12 3.5C16.6946 3.5 20.5 7.30543 20.5 12C20.5 16.6946 16.6946 20.5 12 20.5C7.30543 20.5 3.5 16.6946 3.5 12Z" fill="#585758"/>
</g>
<defs>
<clipPath id="clip0_5037_734">
<rect width="24" height="24" fill="white"/>
</clipPath>
</defs>
</svg>
