<svg width="24" height="24" viewBox="0 0 24 24" fill="none" xmlns="http://www.w3.org/2000/svg">
<path fill-rule="evenodd" clip-rule="evenodd" d="M3.9 12.8999C3.4032 12.8999 3 12.4976 3 11.9999C3 11.5022 3.4032 11.0999 3.9 11.0999H5.7C6.1968 11.0999 6.6 11.5022 6.6 11.9999C6.6 12.4976 6.1968 12.8999 5.7 12.8999H3.9ZM4.79997 19.2H7.49997V16.5H4.79997V19.2ZM8.4 14.7H3.9C3.4032 14.7 3 15.1023 3 15.6V20.1C3 20.5977 3.4032 21 3.9 21H8.4C8.8968 21 9.3 20.5977 9.3 20.1V15.6C9.3 15.1023 8.8968 14.7 8.4 14.7ZM4.79997 7.49997H7.49997V4.79997H4.79997V7.49997ZM3.9 9.3H8.4C8.8968 9.3 9.3 8.8977 9.3 8.4V3.9C9.3 3.4023 8.8968 3 8.4 3H3.9C3.4032 3 3 3.4023 3 3.9V8.4C3 8.8977 3.4032 9.3 3.9 9.3ZM16.5 7.49997H19.2V4.79997H16.5V7.49997ZM20.1 3H15.6C15.1032 3 14.7 3.4023 14.7 3.9V8.4C14.7 8.8977 15.1032 9.3 15.6 9.3H20.1C20.5968 9.3 21 8.8977 21 8.4V3.9C21 3.4023 20.5968 3 20.1 3ZM12.8999 19.2001V18.3001C12.8999 17.8024 12.4967 17.4001 11.9999 17.4001C11.5031 17.4001 11.0999 17.8024 11.0999 18.3001V20.1001C11.0999 20.5978 11.5031 21.0001 11.9999 21.0001H12.8999C13.3967 21.0001 13.7999 20.5978 13.7999 20.1001C13.7999 19.6024 13.3967 19.2001 12.8999 19.2001ZM11.9999 5.7C12.4967 5.7 12.8999 5.2977 12.8999 4.8V3.9C12.8999 3.4023 12.4967 3 11.9999 3C11.5031 3 11.0999 3.4023 11.0999 3.9V4.8C11.0999 5.2977 11.5031 5.7 11.9999 5.7ZM16.4999 14.7C16.0031 14.7 15.5999 15.1023 15.5999 15.6V20.1C15.5999 20.5977 16.0031 21 16.4999 21C16.9967 21 17.3999 20.5977 17.3999 20.1V15.6C17.3999 15.1023 16.9967 14.7 16.4999 14.7ZM11.9999 9.30001C12.2429 9.30001 12.4679 9.20911 12.6389 9.03901C12.8099 8.86801 12.8999 8.64301 12.8999 8.40001C12.8999 8.28301 12.8729 8.16601 12.8279 8.05801C12.7829 7.94101 12.7199 7.85101 12.6389 7.76101C12.2969 7.42801 11.7029 7.42801 11.3609 7.76101C11.2799 7.85101 11.2169 7.94101 11.1719 8.05801C11.1269 8.16601 11.0999 8.28301 11.0999 8.40001C11.0999 8.64301 11.1899 8.86801 11.3609 9.03901C11.5319 9.20911 11.7569 9.30001 11.9999 9.30001ZM19.461 19.4609C19.299 19.631 19.2 19.8659 19.2 20.0999C19.2 20.342 19.29 20.567 19.461 20.7389C19.632 20.909 19.857 20.9999 20.1 20.9999C20.343 20.9999 20.568 20.909 20.739 20.7389C20.82 20.648 20.883 20.5499 20.928 20.4419C20.982 20.3339 21 20.2169 21 20.0999C21 19.8659 20.901 19.631 20.739 19.4609C20.397 19.1279 19.794 19.1279 19.461 19.4609ZM20.1 14.7C19.6032 14.7 19.2 15.1023 19.2 15.6V16.5C19.2 16.9977 19.6032 17.4 20.1 17.4C20.5968 17.4 21 16.9977 21 16.5V15.6C21 15.1023 20.5968 14.7 20.1 14.7ZM20.1 11.0999H15.6C15.1032 11.0999 14.7 11.5022 14.7 11.9999C14.7 12.4976 15.1032 12.8999 15.6 12.8999H20.1C20.5968 12.8999 21 12.4976 21 11.9999C21 11.5022 20.5968 11.0999 20.1 11.0999ZM11.1001 14.6999C11.1001 15.1976 11.5033 15.5999 12.0001 15.5999C12.4969 15.5999 12.9001 15.1976 12.9001 14.6999V11.9999C12.9001 11.5022 12.4969 11.0999 12.0001 11.0999H9.30006C8.80326 11.0999 8.40005 11.5022 8.40005 11.9999C8.40005 12.4976 8.80326 12.8999 9.30006 12.8999H11.1001V14.6999Z" fill="#585758"/>
</svg>
