<svg width="25" height="24" viewBox="0 0 25 24" fill="none" xmlns="http://www.w3.org/2000/svg">
<path fill-rule="evenodd" clip-rule="evenodd" d="M5.5 4.5V3.75C5.5 3.33579 5.83579 3 6.25 3C6.66421 3 7 3.33579 7 3.75V4.5H18V3.75C18 3.33579 18.3358 3 18.75 3C19.1642 3 19.5 3.33579 19.5 3.75V4.5H20.3C20.4591 4.5 20.611 4.53098 20.75 4.58723C20.924 4.65767 21.0777 4.76774 21.2 4.90625C21.3867 5.11779 21.5 5.39567 21.5 5.7C21.5 5.86569 21.3657 6 21.2 6H20.3H4.7H3.8C3.63431 6 3.5 5.86569 3.5 5.7C3.5 5.39567 3.61329 5.11779 3.8 4.90625C3.92225 4.76774 4.07598 4.65767 4.25 4.58723C4.38896 4.53098 4.54086 4.5 4.7 4.5H5.5ZM20 8.5H5V19C5 19.2761 5.22386 19.5 5.5 19.5H19.5C19.7761 19.5 20 19.2761 20 19V8.5ZM5 7H3.5V8.5V19C3.5 20.1046 4.39543 21 5.5 21H19.5C20.6046 21 21.5 20.1046 21.5 19V8.5V7H20H5ZM7.5 11.5C7.5 11.2239 7.72386 11 8 11H9C9.27614 11 9.5 11.2239 9.5 11.5V12.5C9.5 12.7761 9.27614 13 9 13H8C7.72386 13 7.5 12.7761 7.5 12.5V11.5ZM8 15C7.72386 15 7.5 15.2239 7.5 15.5V16.5C7.5 16.7761 7.72386 17 8 17H9C9.27614 17 9.5 16.7761 9.5 16.5V15.5C9.5 15.2239 9.27614 15 9 15H8ZM11.5 11.5C11.5 11.2239 11.7239 11 12 11H13C13.2761 11 13.5 11.2239 13.5 11.5V12.5C13.5 12.7761 13.2761 13 13 13H12C11.7239 13 11.5 12.7761 11.5 12.5V11.5ZM12 15C11.7239 15 11.5 15.2239 11.5 15.5V16.5C11.5 16.7761 11.7239 17 12 17H13C13.2761 17 13.5 16.7761 13.5 16.5V15.5C13.5 15.2239 13.2761 15 13 15H12ZM15.5 11.5C15.5 11.2239 15.7239 11 16 11H17C17.2761 11 17.5 11.2239 17.5 11.5V12.5C17.5 12.7761 17.2761 13 17 13H16C15.7239 13 15.5 12.7761 15.5 12.5V11.5Z" fill="#585758"/>
</svg>
