<svg width="16" height="16" viewBox="0 0 16 16" fill="none" xmlns="http://www.w3.org/2000/svg">
<g clip-path="url(#clip0_6418_1054)">
<path d="M7.99455 1.85156L6.01315 3.83551M7.99455 1.85156L10.0131 3.81987M7.99455 1.85156L8.01637 9.33476M5.17113 5.81925L4.33871 5.81925C3.96458 5.81925 3.65332 6.20239 3.65332 6.57722V13.0898M3.65332 13.0898C3.65332 13.5144 3.94119 13.8513 4.41791 13.8513M3.65332 13.0898C3.65332 13.5183 3.94119 13.8513 4.41791 13.8513M4.41791 13.8513L11.5819 13.8513M10.8287 5.81925L11.6611 5.81925C12.0353 5.81925 12.3465 6.20239 12.3465 6.57722V13.0898M12.3465 13.0898C12.3465 13.5144 12.0586 13.8513 11.5819 13.8513M12.3465 13.0898C12.3465 13.5183 12.0586 13.8513 11.5819 13.8513" stroke="#A9A9AC" stroke-width="1.5" stroke-linecap="round" stroke-linejoin="round"/>
</g>
<defs>
<clipPath id="clip0_6418_1054">
<rect width="16" height="16" fill="white"/>
</clipPath>
</defs>
</svg>
