<svg width="24" height="24" viewBox="0 0 24 24" fill="none" xmlns="http://www.w3.org/2000/svg">
<g clip-path="url(#clip0_6315_1764)">
<path fill-rule="evenodd" clip-rule="evenodd" d="M8.75572 12.1051C10.9939 12.1051 12.8083 10.2907 12.8083 8.05256C12.8083 5.81439 10.9939 4 8.75572 4C6.51756 4 4.70317 5.81439 4.70317 8.05256C4.70317 10.2907 6.51756 12.1051 8.75572 12.1051ZM7.06716 13.0057C4.26945 13.0057 2.00146 15.2737 2.00146 18.0714C2.00146 19.004 2.75746 19.7599 3.69003 19.7599H13.8214C14.754 19.7599 15.51 19.004 15.51 18.0714C15.51 15.2737 13.242 13.0057 10.4443 13.0057H7.06716Z" fill="#585758"/>
<path fill-rule="evenodd" clip-rule="evenodd" d="M13.743 14.2268C14.7679 15.1069 15.4368 16.3898 15.5044 17.83H13.7842C13.1629 17.83 12.6592 17.3263 12.6592 16.705C12.6592 15.7254 13.0765 14.8433 13.743 14.2268ZM15.4578 13.379C15.6451 13.3467 15.8377 13.33 16.0342 13.33H18.2842C20.1481 13.33 21.6592 14.841 21.6592 16.705C21.6592 17.3263 21.1555 17.83 20.5342 17.83H17.307C17.2476 16.1107 16.5562 14.552 15.4578 13.379ZM19.8592 10.03C19.8592 11.5211 18.6503 12.73 17.1592 12.73C15.668 12.73 14.4592 11.5211 14.4592 10.03C14.4592 8.53879 15.668 7.32996 17.1592 7.32996C18.6503 7.32996 19.8592 8.53879 19.8592 10.03Z" fill="#585758"/>
</g>
<defs>
<clipPath id="clip0_6315_1764">
<rect width="24" height="24" fill="white"/>
</clipPath>
</defs>
</svg>
