<svg width="24" height="24" viewBox="0 0 24 24" fill="none" xmlns="http://www.w3.org/2000/svg">
<path fill-rule="evenodd" clip-rule="evenodd" d="M17.3033 6.70209C17.5962 6.99499 17.5962 7.46986 17.3033 7.76275L13.0607 12.0054L17.3033 16.248C17.5962 16.5409 17.5962 17.0158 17.3033 17.3087C17.0104 17.6016 16.5356 17.6016 16.2427 17.3087L12 13.0661L7.75738 17.3087C7.46449 17.6016 6.98961 17.6016 6.69672 17.3087C6.40383 17.0158 6.40383 16.5409 6.69672 16.248L10.9394 12.0054L6.69672 7.76275C6.40383 7.46986 6.40383 6.99499 6.69672 6.70209C6.98961 6.4092 7.46449 6.4092 7.75738 6.70209L12 10.9447L16.2427 6.70209C16.5356 6.4092 17.0104 6.4092 17.3033 6.70209Z" fill="#585758"/>
</svg>
